<?xml version="1.0" standalone="no"?><!DOCTYPE svg PUBLIC "-//W3C//DTD SVG 1.1//EN" "http://www.w3.org/Graphics/SVG/1.1/DTD/svg11.dtd"><svg class="icon" width="128px" height="128.00px" viewBox="0 0 1024 1024" version="1.1" xmlns="http://www.w3.org/2000/svg"><path fill="#ffffff" d="M512 757.086c-135.445 0-245.11-109.665-245.11-245.086 0-135.296 109.665-244.96 245.11-244.96 135.268 0 244.93 109.665 244.93 244.96 0 135.422-109.662 245.086-244.93 245.086z m0-612.605c-202.992 0-367.636 164.526-367.636 367.519 0 202.964 164.644 367.636 367.636 367.636 202.936 0 367.458-164.673 367.458-367.636 0-202.993-164.522-367.52-367.458-367.52z m0 796.36C275.089 940.84 83.16 748.886 83.16 512 83.16 275.234 275.089 83.16 512 83.16c236.737 0 428.84 192.074 428.84 428.84 0 236.887-192.103 428.84-428.84 428.84z m0 0" /></svg>