<?xml version="1.0" standalone="no"?><!DOCTYPE svg PUBLIC "-//W3C//DTD SVG 1.1//EN" "http://www.w3.org/Graphics/SVG/1.1/DTD/svg11.dtd"><svg t="1664510967881" class="icon" viewBox="0 0 1024 1024" version="1.1" xmlns="http://www.w3.org/2000/svg" p-id="1554" width="128" height="128" xmlns:xlink="http://www.w3.org/1999/xlink"><path d="M512 0C229.376 0 0 229.376 0 512s229.376 512 512 512 512-229.376 512-512S794.624 0 512 0z m231.936 410.624l-260.608 260.608c-15.872 15.872-41.984 15.872-57.856 0l-144.896-144.896c-15.872-15.872-15.872-41.984 0-57.856 8.192-8.192 18.432-11.776 29.184-11.776 10.24 0 20.992 4.096 29.184 11.776l115.712 115.712 231.936-231.936c15.872-15.872 41.984-15.872 57.856 0 15.36 16.384 15.36 42.496-0.512 58.368z" p-id="1555" fill="#ffffff"></path></svg>