<?xml version="1.0" standalone="no"?><!DOCTYPE svg PUBLIC "-//W3C//DTD SVG 1.1//EN" "http://www.w3.org/Graphics/SVG/1.1/DTD/svg11.dtd"><svg t="1664884538925" class="icon" viewBox="0 0 1024 1024" version="1.1" xmlns="http://www.w3.org/2000/svg" p-id="21976" xmlns:xlink="http://www.w3.org/1999/xlink" width="128" height="128"><path d="M768 896H256c-70.6 0-128-57.4-128-128V256c0-70.6 57.4-128 128-128h512c70.6 0 128 57.4 128 128v512c0 70.6-57.4 128-128 128zM256 213.3c-23.5 0-42.7 19.1-42.7 42.7v512c0 23.5 19.1 42.7 42.7 42.7h512c23.5 0 42.7-19.1 42.7-42.7V256c0-23.5-19.1-42.7-42.7-42.7H256z m238.2 448.9l240-240c16.7-16.7 16.7-43.7 0-60.3-16.7-16.7-43.7-16.7-60.3 0L464 571.7 350.2 457.8c-16.7-16.7-43.7-16.7-60.3 0-16.7 16.7-16.7 43.7 0 60.3l144 144c8.3 8.3 19.3 12.5 30.2 12.5s21.7-4.1 30.1-12.4z" p-id="21977" fill="#ffffff"></path></svg>