<?xml version="1.0" standalone="no"?><!DOCTYPE svg PUBLIC "-//W3C//DTD SVG 1.1//EN" "http://www.w3.org/Graphics/SVG/1.1/DTD/svg11.dtd"><svg class="icon" width="128px" height="128.00px" viewBox="0 0 1024 1024" version="1.1" xmlns="http://www.w3.org/2000/svg"><path fill="#ffffff" d="M399.177 240.09h501.38c21.448 0 38.836-17.388 38.836-38.836s-17.388-38.836-38.836-38.836h-501.38c-21.448 0-38.836 17.387-38.836 38.836s17.388 38.836 38.836 38.836z m-0.01 309.739h499.54c21.448 0 38.835-17.388 38.835-38.836s-17.387-38.836-38.836-38.836h-499.54c-21.448 0-38.836 17.387-38.836 38.836s17.388 38.836 38.836 38.836z m501.39 233.784h-501.38c-21.448 0-38.836 17.387-38.836 38.836s17.388 38.836 38.836 38.836h501.38c21.448 0 38.836-17.388 38.836-38.836s-17.388-38.836-38.836-38.836z m-776.874-582.36a77.672 77.672 0 1 0 155.345 0 77.672 77.672 0 1 0-155.345 0z m0 309.275a77.672 77.672 0 1 0 155.345 0 77.672 77.672 0 1 0-155.345 0z m0 311.701a77.672 77.672 0 1 0 155.345 0 77.672 77.672 0 1 0-155.345 0z" /></svg>