<?xml version="1.0" standalone="no"?><!DOCTYPE svg PUBLIC "-//W3C//DTD SVG 1.1//EN" "http://www.w3.org/Graphics/SVG/1.1/DTD/svg11.dtd"><svg class="icon" width="128px" height="128.00px" viewBox="0 0 1024 1024" version="1.1" xmlns="http://www.w3.org/2000/svg"><path fill="#ffffff" d="M147.911 475.591a291.271 291.271 0 1 1 582.542 0 291.271 291.271 0 0 1-582.542 0m718.82 412.44L703.803 725.138a362.341 362.341 0 0 0 99.47-249.547c0-201.086-163.003-364.089-364.09-364.089s-364.09 163.003-364.09 364.09S238.096 839.68 439.183 839.68a361.832 361.832 0 0 0 209.532-66.665L815.213 939.55c14.236 14.199 37.283 14.199 51.519 0 14.2-14.236 14.2-37.283 0-51.519" /></svg>