<?xml version="1.0" standalone="no"?><!DOCTYPE svg PUBLIC "-//W3C//DTD SVG 1.1//EN" "http://www.w3.org/Graphics/SVG/1.1/DTD/svg11.dtd"><svg t="1664873735270" class="icon" viewBox="0 0 1024 1024" version="1.1" xmlns="http://www.w3.org/2000/svg" p-id="2376" xmlns:xlink="http://www.w3.org/1999/xlink" width="128" height="128"><path d="M511.625 92.188c-230.813 0-420 187.875-420 420 0 230.812 187.875 420 420 420s420-187.875 420-420c0-230.813-187.875-420-420-420z m0 777.937c-196.781 0-357.938-161.156-357.938-357.938s161.157-356.625 357.938-356.625S868.25 315.406 868.25 512.188c0 196.875-159.844 357.938-356.625 357.938z m0 0" p-id="2377" fill="#ffffff"></path><path d="M714.781 575.563l-173.906-58.22V268.626c0-17.813-15.281-33.188-33.188-33.188-17.812 0-33.187 15.282-33.187 33.188v271.688c-1.313 12.75 6.375 24.187 19.125 30.562l193.031 64.594c5.063 1.312 8.907 2.531 14.063 2.531 3.843 0 7.687 0 12.75-1.313 7.687-2.53 14.062-8.906 17.812-16.593 3.844-8.907 3.844-17.813 1.313-25.5-2.907-8.813-8.907-15.188-17.813-19.032z m0 0" p-id="2378" fill="#ffffff"></path></svg>