<?xml version="1.0" standalone="no"?><!DOCTYPE svg PUBLIC "-//W3C//DTD SVG 1.1//EN" "http://www.w3.org/Graphics/SVG/1.1/DTD/svg11.dtd"><svg class="icon" width="32px" height="32.00px" viewBox="0 0 1024 1024" version="1.1" xmlns="http://www.w3.org/2000/svg"><path fill="#ffffff" d="M571.733 512l268.8-268.8c17.067-17.067 17.067-42.667 0-59.733-17.066-17.067-42.666-17.067-59.733 0L512 452.267l-268.8-268.8c-17.067-17.067-42.667-17.067-59.733 0-17.067 17.066-17.067 42.666 0 59.733l268.8 268.8-268.8 268.8c-17.067 17.067-17.067 42.667 0 59.733 8.533 8.534 19.2 12.8 29.866 12.8s21.334-4.266 29.867-12.8l268.8-268.8 268.8 268.8c8.533 8.534 19.2 12.8 29.867 12.8s21.333-4.266 29.866-12.8c17.067-17.066 17.067-42.666 0-59.733L571.733 512z" /></svg>