<?xml version="1.0" standalone="no"?><!DOCTYPE svg PUBLIC "-//W3C//DTD SVG 1.1//EN" "http://www.w3.org/Graphics/SVG/1.1/DTD/svg11.dtd"><svg class="icon" width="32px" height="32.00px" viewBox="0 0 1024 1024" version="1.1" xmlns="http://www.w3.org/2000/svg"><path fill="#ffffff" d="M512 938.667A426.667 426.667 0 1 1 938.667 512 426.667 426.667 0 0 1 512 938.667z m0-789.334A362.667 362.667 0 1 0 874.667 512 362.667 362.667 0 0 0 512 149.333z"  /><path fill="#ffffff" d="M715.008 418.453l-231.21 232.534a32.576 32.576 0 0 1-46.251 0L329.643 542.485a32.981 32.981 0 0 1 0-46.485 32.576 32.576 0 0 1 46.25 0l84.779 85.333 208.085-209.258a32.576 32.576 0 0 1 46.251 0 33.003 33.003 0 0 1 0 46.378z"  /></svg>